HIERARCHY
ROOT pelvis
{
  OFFSET 0 100 0
  CHANNELS 6 Xposition Yposition Zposition Zrotation Xrotation Yrotation
  JOINT pelvis_right_femur
  {
    OFFSET -10.78128 -3.44521 -0.5502486
    CHANNELS 3 Zrotation Xrotation Yrotation
    JOINT right_femur_tibia
    {
      OFFSET -0.8047443 -44.0398 -0.1307829
      CHANNELS 3 Zrotation Xrotation Yrotation
      JOINT right_tibia_foot
      {
        OFFSET 3.006224 -47.83518 -5
        CHANNELS 3 Zrotation Xrotation Yrotation
        End Site
        {
          OFFSET 0 -5 15
        }
      }
    }
  }
  JOINT pelvis_left_femur
  {
    OFFSET 10.78128 -3.44521 -0.5502486
    CHANNELS 3 Zrotation Xrotation Yrotation
    JOINT left_femur_tibia
    {
      OFFSET 0.8047443 -44.0398 -0.1307829
      CHANNELS 3 Zrotation Xrotation Yrotation
      JOINT left_tibia_foot
      {
        OFFSET -4.370144 -48.10324 -4.275266
        CHANNELS 3 Zrotation Xrotation Yrotation
        End Site
        {
          OFFSET 0 -5 15
        }
      }
    }
  }
  JOINT pelvis_spine1
  {
    OFFSET 0 6.468898 -3.129235
    CHANNELS 3 Zrotation Xrotation Yrotation
    JOINT spine1
    {
      OFFSET 0 23.15396 4.99043
      CHANNELS 3 Zrotation Xrotation Yrotation
      JOINT spine2
      {
        OFFSET 0 20.79997 -5.064912
        CHANNELS 3 Zrotation Xrotation Yrotation
        JOINT neck
        {
          OFFSET 0 14.38658 9.616178
          CHANNELS 3 Zrotation Xrotation Yrotation
          End Site
          {
            OFFSET 0 20 0
          }
        }
      }
      JOINT right_manubrium
      {
        OFFSET -5.722621 16.35077 3.967754
        CHANNELS 3 Zrotation Xrotation Yrotation
        JOINT right_clavicle
        {
          OFFSET -13.16364 1.694482 -4.693211
          CHANNELS 3 Zrotation Xrotation Yrotation
          JOINT right_humerus
          {
            OFFSET -28.5034 -0.3100689 -2.792744
            CHANNELS 3 Zrotation Xrotation Yrotation
            JOINT right_radius
            {
              OFFSET -25.15693 0.02248979 -1.271978
              CHANNELS 3 Zrotation Xrotation Yrotation
              End Site
              {
                OFFSET -15 0 0
              }
            }
          }
        }
      }
      JOINT left_manubrium
      {
        OFFSET 5.722621 16.35077 3.967754
        CHANNELS 3 Zrotation Xrotation Yrotation
        JOINT left_clavicle
        {
          OFFSET 13.16364 1.694482 -4.693211
          CHANNELS 3 Zrotation Xrotation Yrotation
          JOINT left_humerus
          {
            OFFSET 29.39168 -1.063119 -2.237045
            CHANNELS 3 Zrotation Xrotation Yrotation
            JOINT left_radius
            {
              OFFSET 24.59957 -0.9528479 0.9047498
              CHANNELS 3 Zrotation Xrotation Yrotation
              End Site
              {
                OFFSET 15 -0 -0
              }
            }
          }
        }
      }
    }
  }
}
MOTION
Frames: 11
Frame Time: 0.0416666666667
60.01155 102.7129 254.0154 4.205721 -7.951881 7.535448 -1.667504 23.21874 7.645048 -0 27.61746 -0 6.290622 -12.29095 -0.6578723 -2.705238 -22.59049 -7.075379 -0 25.01692 -0 -7.919958 -6.751116 18.48811 -1.558711 -1.417584 9.652377 -2.436836 9.720897 -2.10427 2.568673 21.80555 3.905275 1.416647 -14.50546 6.184364 0.7118874 -21.55102 10.78753 82.34999 19.70966 -6.580124 -0 0 27.13691 -23.251 10.20397 12.67946 4.496139 -13.16932 -3.010862 -94.12987 23.53572 25.92983 0 0 -8.987175 -4.504831 5.196427 18.60217
62.15756 103.05 260.843 4.558582 -8.182061 8.137137 -2.309549 21.25168 6.988787 -0 34.43853 -0 6.307708 -10.72991 -1.463307 -4.094401 -18.98027 -8.2094 -0 25.07657 -0 -7.594803 -7.411024 17.99954 -2.000351 -1.682613 9.236516 -2.405591 9.561479 -2.219676 2.639133 22.03528 3.924711 1.273183 -14.44865 6.428503 0.9996944 -20.68901 10.55559 83.14809 19.7644 -7.580442 -0 0 25.52442 -22.88682 10.21399 12.19255 4.327054 -13.05094 -3.133982 -93.33755 24.02581 24.88748 0 0 -8.761593 -4.470816 5.286761 18.6677
64.23424 103.8321 267.4502 4.884229 -8.583611 9.025406 -2.558824 17.72661 6.148862 -0 41.00578 -0 6.086564 -9.464564 -2.581024 -5.237352 -14.44774 -9.078246 -0 25.09128 -0 -7.216667 -8.415533 17.51435 -2.363187 -1.643928 8.528039 -2.286793 9.488608 -2.469602 2.642353 22.38241 3.998322 1.098199 -14.31343 6.690165 1.377655 -19.70823 10.39487 84.15258 19.99414 -8.938151 -0 0 23.43546 -22.35624 10.30103 11.57517 4.194142 -13.30207 -3.322891 -92.09708 24.56816 23.0667 0 0 -9.141787 -4.246949 5.481764 18.47134
66.19692 104.9094 273.6982 5.126409 -9.034093 10.15047 -2.463154 12.84507 5.232126 -0 46.24099 -0 5.659912 -8.611416 -3.843435 -6.041998 -9.330825 -9.664208 -0 24.64535 -0 -6.835149 -9.689964 17.00791 -2.600394 -1.342538 7.542343 -2.081292 9.44009 -2.894416 2.59835 22.80645 4.120507 0.9011629 -14.11254 6.977626 1.709215 -18.68688 10.24752 85.30644 20.33504 -10.52703 -0 0 21.15951 -21.69802 10.42747 10.90105 4.131981 -13.86425 -3.570038 -90.4845 25.1117 20.54452 0 0 -10.10364 -3.846383 5.778043 18.01864
68.04113 106.0522 279.5533 5.248043 -9.341696 11.4526 -2.18785 7.075211 4.370937 -0 48.81728 -0 5.076942 -8.126661 -5.029196 -6.473069 -4.042523 -10.02338 -0 23.52161 -0 -6.530137 -11.05997 16.4404 -2.718964 -0.9386056 6.36501 -1.787182 9.332977 -3.527035 2.555319 23.24697 4.270977 0.7093666 -13.87024 7.300372 1.833893 -17.66121 10.01944 86.54526 20.70342 -12.24694 -0 0 18.9953 -20.96889 10.54474 10.24953 4.19529 -14.62397 -3.852829 -88.63667 25.60099 17.47644 0 0 -11.58905 -3.301793 6.167557 17.33337
69.78685 107.0085 285.0759 5.264928 -9.402206 12.87504 -1.902263 0.9163674 3.647433 -0 48.17426 -0 4.360832 -7.916612 -6.041984 -6.591412 1.114361 -10.23683 -0 21.81496 -0 -6.331834 -12.43762 15.79331 -2.768396 -0.5557507 5.112504 -1.419424 9.123365 -4.339769 2.552947 23.65213 4.415757 0.5468721 -13.61973 7.643118 1.69152 -16.64191 9.670544 87.79069 21.03986 -14.03019 -0 0 17.0639 -20.21324 10.62147 9.64616 4.407209 -15.49848 -4.137326 -86.67394 25.99672 14.03952 0 0 -13.50984 -2.64489 6.638709 16.44464
71.46213 107.5703 290.4091 5.253185 -9.186736 14.34737 -1.790968 -5.072476 3.091113 -0 44.43042 -0 3.505892 -7.865207 -6.909521 -6.541561 5.912071 -10.37247 -0 19.92203 -0 -6.21732 -13.84096 15.07375 -2.839473 -0.2691174 3.94258 -1.011491 8.804078 -5.238719 2.624513 23.97198 4.501483 0.436341 -13.40878 7.959506 1.314037 -15.62329 9.212552 88.93431 21.30742 -15.82713 -0 0 15.31548 -19.46288 10.63838 9.058801 4.761046 -16.4402 -4.374147 -84.69627 26.28035 10.43651 0 0 -15.75064 -1.904169 7.180351 15.3812
73.09395 107.6094 295.7233 5.260723 -8.72417 15.77716 -1.920075 -10.47518 2.664391 -0 38.205 -0 2.515667 -7.905584 -7.677892 -6.438127 10.21782 -10.45489 -0 18.24947 -0 -6.165391 -15.27249 14.31234 -2.986281 -0.0974728 2.973024 -0.596434 8.393339 -6.115663 2.778113 24.18121 4.494704 0.3862199 -13.27462 8.209488 0.7855048 -14.60492 8.695763 89.90555 21.50003 -17.58725 -0 0 13.65491 -18.72758 10.59405 8.445058 5.223169 -17.41634 -4.522779 -82.79168 26.44998 6.860092 0 0 -18.17326 -1.103312 7.775964 14.18351
74.69483 107.1249 301.1404 5.278029 -8.116131 17.06905 -2.152126 -15.04684 2.286871 -0 30.78851 -0 1.421249 -8.067995 -8.361767 -6.321926 13.98258 -10.46347 -0 17.18242 -0 -6.186458 -16.62867 13.57681 -3.176658 0.004180744 2.25909 -0.2024541 7.937134 -6.840567 2.980171 24.29102 4.40081 0.3813882 -13.24011 8.370827 0.2549193 -13.60757 8.226082 90.70455 21.64644 -19.23288 -0 0 11.97544 -17.98133 10.51301 7.761541 5.715898 -18.39105 -4.555709 -81.06676 26.51512 3.524934 0 0 -20.5728 -0.2658017 8.397781 12.92454
76.25793 106.2476 306.7219 5.274463 -7.490194 18.14982 -2.277311 -18.6268 1.926062 -0 23.63884 -0 0.2673088 -8.39111 -8.958933 -6.185163 17.18569 -10.37521 -0 17.06344 -0 -6.30241 -17.74252 12.94736 -3.338425 0.08682563 1.80854 0.1516229 7.489897 -7.306384 3.185462 24.33155 4.241967 0.3995466 -13.31503 8.43456 -0.1340535 -12.66404 7.904829 91.36172 21.78329 -20.67885 -0 0 10.20564 -17.19149 10.42543 6.981562 6.151127 -19.31362 -4.46169 -79.63066 26.50396 0.6453379 0 0 -22.72257 0.5791636 9.016093 11.69061
77.77525 105.1787 312.5241 5.19914 -6.964881 19.00334 -2.117283 -21.07683 1.698469 -0 17.91851 -0 -0.8852615 -8.778773 -9.455378 -5.949112 19.78241 -10.22441 -0 18.1501 -0 -6.537188 -18.38145 12.50082 -3.394028 0.134564 1.55193 0.4634781 7.096946 -7.516907 3.370554 24.34852 4.039877 0.4286557 -13.48237 8.410142 -0.3356688 -11.80973 7.749597 91.90523 21.9284 -21.84807 -0 0 8.412983 -16.35913 10.34766 6.141834 6.464833 -20.08151 -4.263442 -78.59242 26.4703 -1.584458 0 0 -24.4032 1.382789 9.604815 10.57046
